# xmcd
#
# Track frame offsets: 
#        150
#        13583
#        31774
#        41066
#        57441
#        77497
#        82207
#        94257
#        109943
#        126116
#        140034
#        151962
#        157671
#        167074
#
# Disc length: 2440 seconds
#
# Revision: 0
# Processed by: cddbd v1.5.2PL0 Copyright (c) Steve Scherf et al.
# Submitted via: ExactAudioCopy v1.3
#
DISCID=ae09860e
DTITLE=Shawn Pittman and Jay Moeller - Everybody Wants To Know
DYEAR=2018
DGENRE=Blues
TTITLE0=Can't Get Along With You
TTITLE1=Everybody Wants To Know
TTITLE2=Rattlesnakes (Instrumental)
TTITLE3=Woman Don't Lie
TTITLE4=It Don't Take Too Much
TTITLE5=Hit The Road Jack
TTITLE6=Things You Stole
TTITLE7=Smarten Up
TTITLE8=The Set Up
TTITLE9=I'll Forget About You
TTITLE10=Dangerous Woman
TTITLE11=My Talk Didn't Do Any Good
TTITLE12=Blue Diamond
TTITLE13=Stroll Out West
EXTD=
EXTT0=
EXTT1=
EXTT2=
EXTT3=
EXTT4=
EXTT5=
EXTT6=
EXTT7=
EXTT8=
EXTT9=
EXTT10=
EXTT11=
EXTT12=
EXTT13=
PLAYORDER=
